<svg width="134" height="47" viewBox="0 0 134 47" fill="none" xmlns="http://www.w3.org/2000/svg">
<rect width="46.5963" height="47" rx="23.2982" fill="#FAFCFF"/>
<rect width="46.5963" height="47" rx="23.2982" fill="black" fill-opacity="0.04"/>
<path d="M26.8293 20.0745C29.7788 23.1418 31.5963 27.3546 31.5963 32H26.6424C26.6424 25.4149 21.4287 20.0745 15 20.0745V15H31.5963L26.8293 20.0745Z" fill="#FF804A"/>
<path d="M24.2917 32H15V22.4787C20.134 22.4787 24.2917 26.7411 24.2917 32Z" fill="#1A3666"/>
<path d="M57.3848 18.3906V16.125C57.6243 15.7083 57.8613 15.3203 58.0957 14.9609C58.3353 14.5964 58.5905 14.2344 58.8613 13.875C59.1374 13.5156 59.4473 13.125 59.791 12.7031L62.6426 9.35938H65.5566L60.6426 15.0469L60.4473 14.9844L57.3848 18.3906ZM55.627 21V9.35938H58.0176V12.5469L57.9785 15.5078L58.0176 16.6719V21H55.627ZM62.8613 21L59.4082 15.75L60.9082 13.9609L65.6738 21H62.8613ZM69.6432 21.1719C68.7734 21.1719 68.0182 20.9844 67.3776 20.6094C66.7422 20.2344 66.25 19.7109 65.901 19.0391C65.5573 18.3672 65.3854 17.5859 65.3854 16.6953C65.3854 15.7943 65.5573 15.0078 65.901 14.3359C66.25 13.6641 66.7422 13.1406 67.3776 12.7656C68.0182 12.3906 68.7734 12.2031 69.6432 12.2031C70.5182 12.2031 71.2734 12.3906 71.9088 12.7656C72.5495 13.1406 73.0416 13.6641 73.3854 14.3359C73.7343 15.0078 73.9088 15.7943 73.9088 16.6953C73.9088 17.5859 73.7343 18.3672 73.3854 19.0391C73.0416 19.7109 72.5495 20.2344 71.9088 20.6094C71.2734 20.9844 70.5182 21.1719 69.6432 21.1719ZM69.6432 19.3281C70.0599 19.3281 70.4062 19.2135 70.6823 18.9844C70.9635 18.7552 71.1745 18.4427 71.3151 18.0469C71.4609 17.6458 71.5338 17.1927 71.5338 16.6875C71.5338 16.1719 71.4609 15.7161 71.3151 15.3203C71.1745 14.9245 70.9635 14.6146 70.6823 14.3906C70.4062 14.1615 70.0599 14.0469 69.6432 14.0469C69.2317 14.0469 68.8854 14.1615 68.6041 14.3906C68.3281 14.6146 68.1172 14.9245 67.9713 15.3203C67.8307 15.7161 67.7604 16.1719 67.7604 16.6875C67.7604 17.1927 67.8307 17.6458 67.9713 18.0469C68.1172 18.4427 68.3281 18.7552 68.6041 18.9844C68.8854 19.2135 69.2317 19.3281 69.6432 19.3281ZM74.8704 21V12.3203H77.0501L77.1516 14.4531H76.9876C77.123 13.9271 77.3209 13.4974 77.5813 13.1641C77.847 12.8307 78.1568 12.5859 78.511 12.4297C78.8652 12.2682 79.2376 12.1875 79.6282 12.1875C80.2532 12.1875 80.7636 12.3854 81.1595 12.7812C81.5553 13.1719 81.8391 13.7734 82.011 14.5859H81.7454C81.8704 14.0391 82.0787 13.5885 82.3704 13.2344C82.6621 12.8802 83.0084 12.6172 83.4095 12.4453C83.8105 12.2734 84.235 12.1875 84.6829 12.1875C85.2141 12.1875 85.6881 12.3047 86.1048 12.5391C86.5266 12.7682 86.8574 13.1042 87.097 13.5469C87.3417 13.9844 87.4641 14.5208 87.4641 15.1562V21H85.1204V15.6016C85.1204 15.1068 84.9876 14.7396 84.722 14.5C84.4563 14.2552 84.1282 14.1328 83.7376 14.1328C83.4407 14.1328 83.1829 14.1979 82.9641 14.3281C82.7506 14.4583 82.5865 14.638 82.472 14.8672C82.3574 15.0964 82.3001 15.3646 82.3001 15.6719V21H80.0345V15.5391C80.0345 15.112 79.9068 14.7708 79.6516 14.5156C79.4016 14.2604 79.0761 14.1328 78.6751 14.1328C78.399 14.1328 78.149 14.1979 77.9251 14.3281C77.7063 14.4531 77.5318 14.6354 77.4016 14.875C77.2714 15.1146 77.2063 15.4115 77.2063 15.7656V21H74.8704ZM88.7773 24.2656V12.3203H91.082V13.75H91.1835C91.2981 13.5104 91.457 13.2734 91.6601 13.0391C91.8632 12.7995 92.1288 12.6016 92.457 12.4453C92.7851 12.2839 93.1887 12.2031 93.6679 12.2031C94.3241 12.2031 94.9179 12.3724 95.4491 12.7109C95.9856 13.0443 96.4127 13.5443 96.7304 14.2109C97.0533 14.8724 97.2148 15.6927 97.2148 16.6719C97.2148 17.6302 97.0585 18.4427 96.746 19.1094C96.4335 19.776 96.009 20.2839 95.4726 20.6328C94.9361 20.9766 94.3294 21.1484 93.6523 21.1484C93.1939 21.1484 92.8007 21.0729 92.4726 20.9219C92.1497 20.7656 91.884 20.5703 91.6757 20.3359C91.4674 20.1016 91.3033 19.862 91.1835 19.6172H91.1132V24.2656H88.7773ZM92.9491 19.2734C93.3502 19.2734 93.6887 19.1641 93.9648 18.9453C94.246 18.7214 94.457 18.4141 94.5976 18.0234C94.7434 17.6276 94.8163 17.1745 94.8163 16.6641C94.8163 16.1536 94.7434 15.7057 94.5976 15.3203C94.457 14.9297 94.2486 14.625 93.9726 14.4062C93.6965 14.1875 93.3554 14.0781 92.9491 14.0781C92.5481 14.0781 92.207 14.1849 91.9257 14.3984C91.6445 14.612 91.4283 14.9115 91.2773 15.2969C91.1314 15.6823 91.0585 16.138 91.0585 16.6641C91.0585 17.1849 91.1314 17.6406 91.2773 18.0312C91.4283 18.4219 91.6445 18.7266 91.9257 18.9453C92.2122 19.1641 92.5533 19.2734 92.9491 19.2734ZM102.067 21.1719C101.197 21.1719 100.442 20.9844 99.8013 20.6094C99.1659 20.2344 98.6737 19.7109 98.3248 19.0391C97.981 18.3672 97.8091 17.5859 97.8091 16.6953C97.8091 15.7943 97.981 15.0078 98.3248 14.3359C98.6737 13.6641 99.1659 13.1406 99.8013 12.7656C100.442 12.3906 101.197 12.2031 102.067 12.2031C102.942 12.2031 103.697 12.3906 104.333 12.7656C104.973 13.1406 105.465 13.6641 105.809 14.3359C106.158 15.0078 106.333 15.7943 106.333 16.6953C106.333 17.5859 106.158 18.3672 105.809 19.0391C105.465 19.7109 104.973 20.2344 104.333 20.6094C103.697 20.9844 102.942 21.1719 102.067 21.1719ZM102.067 19.3281C102.484 19.3281 102.83 19.2135 103.106 18.9844C103.387 18.7552 103.598 18.4427 103.739 18.0469C103.885 17.6458 103.958 17.1927 103.958 16.6875C103.958 16.1719 103.885 15.7161 103.739 15.3203C103.598 14.9245 103.387 14.6146 103.106 14.3906C102.83 14.1615 102.484 14.0469 102.067 14.0469C101.655 14.0469 101.309 14.1615 101.028 14.3906C100.752 14.6146 100.541 14.9245 100.395 15.3203C100.254 15.7161 100.184 16.1719 100.184 16.6875C100.184 17.1927 100.254 17.6458 100.395 18.0469C100.541 18.4427 100.752 18.7552 101.028 18.9844C101.309 19.2135 101.655 19.3281 102.067 19.3281ZM106.904 21V19.5703L111.193 14.2656V14.2031H107.029V12.3203H114.013V13.8828L109.958 19.0547V19.1172H114.146V21H106.904ZM115.404 21V12.3203H117.74V21H115.404ZM116.568 11.1953C116.214 11.1953 115.909 11.0781 115.654 10.8438C115.404 10.6042 115.279 10.3177 115.279 9.98438C115.279 9.64583 115.404 9.36198 115.654 9.13281C115.909 8.89844 116.214 8.78125 116.568 8.78125C116.928 8.78125 117.232 8.89844 117.482 9.13281C117.737 9.36198 117.865 9.64583 117.865 9.98438C117.865 10.3177 117.737 10.6042 117.482 10.8438C117.232 11.0781 116.928 11.1953 116.568 11.1953ZM123.459 12.3203V14.1094H118.256V12.3203H123.459ZM119.483 10.2188H121.819V18.4453C121.819 18.7214 121.879 18.9245 121.999 19.0547C122.124 19.1849 122.329 19.25 122.616 19.25C122.709 19.25 122.837 19.2396 122.999 19.2188C123.165 19.1979 123.29 19.1797 123.374 19.1641L123.67 20.9219C123.426 20.9948 123.176 21.0443 122.92 21.0703C122.665 21.0964 122.418 21.1094 122.178 21.1094C121.298 21.1094 120.629 20.901 120.17 20.4844C119.712 20.0677 119.483 19.4609 119.483 18.6641V10.2188ZM126.679 15.9922V21H124.343V9.35938H126.648V14.5H126.429C126.658 13.7708 127.007 13.2057 127.476 12.8047C127.944 12.4036 128.549 12.2031 129.288 12.2031C129.892 12.2031 130.418 12.3359 130.866 12.6016C131.319 12.862 131.668 13.237 131.913 13.7266C132.163 14.2161 132.288 14.8021 132.288 15.4844V21H129.944V15.8984C129.944 15.3568 129.804 14.9323 129.523 14.625C129.247 14.3177 128.864 14.1641 128.374 14.1641C128.046 14.1641 127.754 14.237 127.499 14.3828C127.244 14.5234 127.043 14.7292 126.898 15C126.752 15.2708 126.679 15.6016 126.679 15.9922Z" fill="#1A3666"/>
<path d="M64.5157 26.56C64.409 26.8373 64.265 27.2427 64.0837 27.776C63.9024 28.2987 63.7317 28.9813 63.5717 29.824H63.2517C63.2837 29.6747 63.305 29.52 63.3157 29.36C63.337 29.2 63.3477 29.056 63.3477 28.928C63.3477 28.512 63.257 28.1493 63.0757 27.84C62.905 27.52 62.649 27.2747 62.3077 27.104C61.977 26.9227 61.561 26.832 61.0597 26.832C60.5264 26.832 60.0677 26.9707 59.6837 27.248C59.3104 27.5147 59.1237 27.9573 59.1237 28.576C59.1237 28.9493 59.2144 29.312 59.3957 29.664C59.577 30.0053 59.8064 30.3413 60.0837 30.672C60.3717 31.0027 60.6757 31.3387 60.9957 31.68C61.3157 32.0107 61.6197 32.352 61.9077 32.704C62.1957 33.0453 62.4304 33.408 62.6117 33.792C62.793 34.176 62.8837 34.5867 62.8837 35.024C62.8837 35.6 62.7397 36.0907 62.4517 36.496C62.1744 36.9013 61.8117 37.232 61.3637 37.488C60.9157 37.744 60.4357 37.9307 59.9237 38.048C59.4117 38.1653 58.9264 38.224 58.4677 38.224C57.9664 38.224 57.5504 38.192 57.2197 38.128C56.8997 38.064 56.6224 37.9787 56.3877 37.872C56.153 37.7547 55.9237 37.6267 55.6997 37.488C55.5824 37.4133 55.4757 37.3547 55.3797 37.312C55.2837 37.2693 55.2037 37.248 55.1397 37.248C55.001 37.248 54.889 37.312 54.8037 37.44C54.7184 37.568 54.6064 37.792 54.4677 38.112H54.1477C54.2437 37.8773 54.345 37.6053 54.4517 37.296C54.5584 36.9867 54.6757 36.592 54.8037 36.112C54.9317 35.6213 55.0757 35.008 55.2357 34.272H55.5557C55.5024 34.4533 55.4597 34.6613 55.4277 34.896C55.4064 35.12 55.401 35.3333 55.4117 35.536C55.4437 36.2933 55.6784 36.8747 56.1157 37.28C56.5637 37.6747 57.1984 37.872 58.0197 37.872C58.745 37.872 59.2677 37.7227 59.5877 37.424C59.9184 37.1253 60.0837 36.7147 60.0837 36.192C60.0837 35.744 59.9984 35.3333 59.8277 34.96C59.6677 34.5867 59.4544 34.2347 59.1877 33.904C58.9317 33.5733 58.6597 33.2533 58.3717 32.944C58.0837 32.624 57.8064 32.2987 57.5397 31.968C57.2837 31.6373 57.0757 31.28 56.9157 30.896C56.7557 30.512 56.6757 30.096 56.6757 29.648C56.6757 29.104 56.793 28.6347 57.0277 28.24C57.2624 27.8347 57.577 27.4987 57.9717 27.232C58.3664 26.9653 58.793 26.768 59.2517 26.64C59.7104 26.512 60.1637 26.448 60.6117 26.448C61.241 26.448 61.753 26.528 62.1477 26.688C62.5424 26.8373 62.873 26.992 63.1397 27.152C63.2357 27.216 63.3317 27.2747 63.4277 27.328C63.5344 27.3813 63.6144 27.408 63.6677 27.408C63.817 27.408 63.993 27.1253 64.1957 26.56H64.5157ZM69.7783 29.728L69.7303 30.048H64.1783L64.2583 29.728H69.7783ZM65.9703 36.64C65.8957 36.9173 65.901 37.12 65.9863 37.248C66.0823 37.376 66.221 37.44 66.4023 37.44C66.6263 37.44 66.8503 37.328 67.0743 37.104C67.2983 36.88 67.4957 36.5333 67.6663 36.064L67.9063 35.408H68.2103L67.8903 36.336C67.677 36.976 67.3623 37.4507 66.9463 37.76C66.541 38.0693 66.0557 38.224 65.4903 38.224C64.9997 38.224 64.621 38.112 64.3543 37.888C64.0877 37.664 63.9277 37.36 63.8743 36.976C63.8317 36.5813 63.8743 36.1493 64.0023 35.68L66.4023 27.344C66.861 27.3333 67.277 27.312 67.6503 27.28C68.0237 27.248 68.381 27.1947 68.7223 27.12L65.9703 36.64ZM74.635 32.384C74.2403 33.5573 73.8616 34.528 73.499 35.296C73.1363 36.0533 72.779 36.6453 72.427 37.072C72.0856 37.488 71.7336 37.7867 71.371 37.968C71.0083 38.1387 70.6243 38.224 70.219 38.224C69.771 38.224 69.4243 38.128 69.179 37.936C68.9443 37.744 68.811 37.4667 68.779 37.104C68.7576 36.7413 68.827 36.3093 68.987 35.808L70.539 31.088C70.6456 30.7787 70.667 30.5707 70.603 30.464C70.5496 30.3467 70.459 30.288 70.331 30.288C70.1923 30.288 70.0376 30.368 69.867 30.528C69.6963 30.6773 69.515 31.0187 69.323 31.552L69.035 32.32H68.731L69.131 31.152C69.291 30.704 69.4883 30.3627 69.723 30.128C69.9683 29.8933 70.2243 29.7333 70.491 29.648C70.7683 29.552 71.0296 29.504 71.275 29.504C71.755 29.504 72.1123 29.6107 72.347 29.824C72.5816 30.0267 72.7096 30.32 72.731 30.704C72.7523 31.0773 72.6776 31.5253 72.507 32.048L71.067 36.368C70.8323 37.072 70.8856 37.424 71.227 37.424C71.4296 37.424 71.659 37.2907 71.915 37.024C72.171 36.7573 72.4376 36.3893 72.715 35.92C73.003 35.4507 73.2856 34.9013 73.563 34.272C73.8403 33.6427 74.107 32.9653 74.363 32.24C74.619 31.5147 74.843 30.7733 75.035 30.016L74.635 32.384ZM75.419 36.64C75.3443 36.9067 75.3123 37.1093 75.323 37.248C75.3336 37.376 75.4243 37.44 75.595 37.44C75.787 37.44 75.963 37.3493 76.123 37.168C76.2936 36.976 76.459 36.6453 76.619 36.176L76.923 35.36H77.227L76.795 36.576C76.6563 36.992 76.4696 37.3227 76.235 37.568C76.011 37.8027 75.7603 37.968 75.483 38.064C75.2163 38.1707 74.939 38.224 74.651 38.224C74.363 38.224 74.1176 38.176 73.915 38.08C73.723 37.984 73.5736 37.8507 73.467 37.68C73.3603 37.4773 73.3123 37.2373 73.323 36.96C73.3443 36.672 73.3976 36.3467 73.483 35.984L75.099 29.728C75.5363 29.7173 75.947 29.696 76.331 29.664C76.7256 29.632 77.0883 29.5787 77.419 29.504L75.419 36.64ZM84.0378 36.64C83.9418 36.896 83.9152 37.0933 83.9578 37.232C84.0112 37.3707 84.1125 37.44 84.2618 37.44C84.4005 37.44 84.5498 37.36 84.7098 37.2C84.8805 37.0293 85.0565 36.688 85.2378 36.176L85.5098 35.408H85.8138L85.4298 36.576C85.2912 37.0133 85.1045 37.3547 84.8698 37.6C84.6352 37.8347 84.3792 37.9947 84.1018 38.08C83.8352 38.176 83.5738 38.224 83.3178 38.224C82.6565 38.224 82.2352 37.9787 82.0538 37.488C81.9578 37.2853 81.9152 37.0347 81.9258 36.736C81.9365 36.4267 82.0005 36.0747 82.1178 35.68L84.3418 27.328C84.4485 26.9653 84.4378 26.6987 84.3098 26.528C84.1818 26.3573 83.8565 26.272 83.3338 26.272L83.4298 25.936C84.1872 25.9253 84.8645 25.8667 85.4618 25.76C86.0592 25.6427 86.6298 25.4827 87.1738 25.28L84.0378 36.64ZM80.1978 37.424C80.3792 37.424 80.5925 37.3067 80.8378 37.072C81.0832 36.8373 81.3445 36.4907 81.6218 36.032C81.8992 35.5627 82.1658 34.992 82.4218 34.32C82.6778 33.6373 82.9072 32.8587 83.1098 31.984L82.8698 33.712C82.5178 34.736 82.1658 35.584 81.8138 36.256C81.4725 36.928 81.0938 37.424 80.6778 37.744C80.2725 38.064 79.7872 38.224 79.2218 38.224C78.8698 38.224 78.5498 38.144 78.2618 37.984C77.9738 37.824 77.7445 37.584 77.5738 37.264C77.4032 36.9333 77.3178 36.5067 77.3178 35.984C77.3178 35.4933 77.3925 34.96 77.5418 34.384C77.7018 33.7973 77.9312 33.2213 78.2298 32.656C78.5392 32.0907 78.9072 31.568 79.3338 31.088C79.7712 30.608 80.2672 30.224 80.8218 29.936C81.3765 29.648 81.9845 29.504 82.6458 29.504C82.9872 29.504 83.2378 29.584 83.3978 29.744C83.5685 29.8933 83.6698 30.1067 83.7018 30.384L83.5738 30.704C83.5312 30.4267 83.4565 30.2187 83.3498 30.08C83.2432 29.9413 83.0832 29.872 82.8698 29.872C82.5925 29.872 82.3045 30 82.0058 30.256C81.7072 30.5013 81.4192 30.8427 81.1418 31.28C80.8752 31.7067 80.6298 32.1973 80.4058 32.752C80.1818 33.296 80.0058 33.8773 79.8778 34.496C79.7498 35.104 79.6858 35.712 79.6858 36.32C79.6858 36.6827 79.7232 36.96 79.7978 37.152C79.8832 37.3333 80.0165 37.424 80.1978 37.424ZM88.7115 27.056C88.7328 26.5973 88.8981 26.2453 89.2075 26C89.5275 25.7547 89.9061 25.632 90.3435 25.632C90.7381 25.632 91.0368 25.728 91.2395 25.92C91.4528 26.1013 91.5488 26.3573 91.5275 26.688C91.5061 27.104 91.3355 27.4453 91.0155 27.712C90.6955 27.968 90.3115 28.096 89.8635 28.096C89.4901 28.096 89.1968 28.0053 88.9835 27.824C88.7808 27.632 88.6901 27.376 88.7115 27.056ZM88.1035 31.088C88.2848 30.5547 88.2261 30.288 87.9275 30.288C87.7355 30.288 87.5595 30.384 87.3995 30.576C87.2395 30.768 87.0741 31.0933 86.9035 31.552L86.5835 32.368H86.2795L86.7275 31.152C86.8768 30.7253 87.0635 30.3947 87.2875 30.16C87.5221 29.9253 87.7781 29.76 88.0555 29.664C88.3435 29.5573 88.6421 29.504 88.9515 29.504C89.3248 29.504 89.6181 29.5733 89.8315 29.712C90.0448 29.8507 90.1888 30.032 90.2635 30.256C90.3381 30.4693 90.3648 30.7093 90.3435 30.976C90.3221 31.232 90.2688 31.488 90.1835 31.744L88.5035 36.64C88.4075 36.928 88.3808 37.136 88.4235 37.264C88.4768 37.3813 88.5781 37.44 88.7275 37.44C88.8661 37.44 89.0155 37.36 89.1755 37.2C89.3461 37.04 89.5328 36.6987 89.7355 36.176L90.0235 35.408H90.3275L89.9115 36.576C89.7621 37.0133 89.5701 37.3493 89.3355 37.584C89.1008 37.8187 88.8448 37.984 88.5675 38.08C88.3008 38.176 88.0288 38.224 87.7515 38.224C87.2928 38.224 86.9408 38.1227 86.6955 37.92C86.4608 37.7173 86.3328 37.424 86.3115 37.04C86.2901 36.656 86.3648 36.2027 86.5355 35.68L88.1035 31.088ZM95.6917 29.824C95.4464 29.824 95.185 29.9733 94.9077 30.272C94.641 30.56 94.3744 30.9493 94.1077 31.44C93.8517 31.9307 93.617 32.48 93.4037 33.088C93.201 33.696 93.0357 34.3253 92.9077 34.976C92.7904 35.616 92.7317 36.2293 92.7317 36.816C92.7317 37.2 92.7744 37.4773 92.8597 37.648C92.9557 37.8187 93.0944 37.904 93.2757 37.904C93.521 37.904 93.777 37.7653 94.0437 37.488C94.3104 37.2 94.5717 36.816 94.8277 36.336C95.0837 35.856 95.313 35.3173 95.5157 34.72C95.729 34.112 95.8997 33.4827 96.0277 32.832C96.1557 32.1813 96.2197 31.552 96.2197 30.944C96.2197 30.496 96.1717 30.1973 96.0757 30.048C95.9904 29.8987 95.8624 29.824 95.6917 29.824ZM90.5877 35.584C90.5877 35.0933 90.6517 34.5707 90.7797 34.016C90.9184 33.4613 91.1264 32.9173 91.4037 32.384C91.681 31.8507 92.0224 31.3707 92.4277 30.944C92.8437 30.5067 93.329 30.16 93.8837 29.904C94.449 29.6373 95.0784 29.504 95.7717 29.504C96.593 29.504 97.2277 29.728 97.6757 30.176C98.1344 30.624 98.3637 31.28 98.3637 32.144C98.3637 32.6347 98.2944 33.1573 98.1557 33.712C98.0277 34.2667 97.825 34.8107 97.5477 35.344C97.2704 35.8773 96.9237 36.3627 96.5077 36.8C96.1024 37.2267 95.617 37.5733 95.0517 37.84C94.497 38.096 93.873 38.224 93.1797 38.224C92.3584 38.224 91.7184 38 91.2597 37.552C90.8117 37.104 90.5877 36.448 90.5877 35.584Z" fill="#FF804A"/>
</svg>
